<?xml version="1.0" encoding="utf-8"?>
<!-- Generator: Adobe Illustrator 18.1.1, SVG Export Plug-In . SVG Version: 6.00 Build 0)  -->
<svg version="1.1" id="Layer_1" xmlns="http://www.w3.org/2000/svg" xmlns:xlink="http://www.w3.org/1999/xlink" x="0px" y="0px"
	 viewBox="0 0 140 23.3" enable-background="new 0 0 140 23.3" xml:space="preserve">
<g>
	<path fill="#F66600" d="M11.3,3.5c2.3,0,4.4,1,4.4,3C15.7,8,14.4,9,13.3,9c-1,0-1.9-0.7-1.7-1.9c0.8-0.2,1.2-0.8,1.2-1.5
		c0-1.3-0.9-1.9-1.9-1.9c-1.2,0-2.6,0.8-2.6,2.2c0,3,7.3,2.8,7.3,7.8c0,3.6-3.8,6.6-8.2,6.6c-3.9,0-5.7-2.2-5.7-4.5
		c0-2.2,1.7-3.9,4-3.9c1.9,0,3.9,1.1,3.9,3.1c0,1.3-1,2.4-2.6,2.4c-1.1,0-2.1-0.9-1.7-2.1c0.9,0,1.7-0.8,1.7-1.8
		c0-1-0.9-1.4-1.6-1.4c-1.6,0-2.9,1.7-2.9,3.7c0,2.3,1.7,4.4,5.1,4.4c3.3,0,5.2-1.9,5.2-3.9C12.8,12.5,5,12.2,5,8
		C5,5.1,8.3,3.5,11.3,3.5z"/>
	<path fill="#F66600" d="M24.1,8.6c0-0.8-0.5-1.3-1.1-1.3c-1.5,0-2.6,2.4-2.7,4.4c-0.1,2.1,0.6,3.9,2.8,3.9c0.9,0,2.1-0.3,3-1.4
		l0.1,0.1c-1.2,2-3.3,3.5-5.6,3.5c-2.4,0-4.1-1.6-4.1-4.2c0-3.4,2.9-6.4,6.6-6.4c1.5,0,3.8,0.4,3.8,2.2c0,1.5-1.7,3.4-6.5,2.1l0-0.1
		C23,11.5,24.1,10,24.1,8.6z"/>
	<path fill="#F66600" d="M29.2,3.4c0.1-0.4-0.3-0.7-0.8-0.5l-0.1-0.1c0.7-0.3,2.1-0.8,3-0.8c1.1,0,1.5,0.4,1.3,1.7l-1.5,9.6
		c-0.2,1.4-0.7,3.9,0,4.2L31,17.7c-1.4,0.2-4.1,0.1-3.6-3L29.2,3.4z"/>
	<path fill="#F66600" d="M36.7,13.4c-0.3,1.4-0.9,3.8-0.2,4.1l-0.1,0.1c-0.6,0.1-1.2,0.2-1.7,0.2c-1.6,0-2.3-0.7-1.8-3.1L34,8.5
		c0.1-0.4-0.3-0.7-0.8-0.5l-0.1-0.1c0.7-0.3,2.1-0.8,3-0.8c1.1,0,1.6,0.4,1.3,1.7l-1.1,4.4l0.1,0c1.3-5,3.1-6.2,4.9-6.2
		c2.5,0,2.3,2.1,1.9,3.4l-0.7,2.8l0.1,0c1.3-5,3.1-6.2,4.9-6.2c2.5,0,2.3,2,2.1,3.4l-0.5,2.8c-0.3,1.7-0.5,3.9,0.4,4.2l-0.1,0.1
		c-0.5,0.1-1,0.2-1.4,0.2c-1.6,0-3-0.7-2.6-3.2l0.8-4.9c0.1-0.9,0.1-1.5-0.3-1.5c-1.1,0-2.3,2.3-3,5.2c-0.3,1.4-0.9,3.8-0.2,4.1
		l-0.1,0.1c-0.6,0.1-1.2,0.2-1.7,0.2c-1.6,0-2.2-0.7-1.7-3.2L40,9.7c0.1-0.9,0.1-1.5-0.3-1.5C38.5,8.2,37.4,10.5,36.7,13.4z"/>
	<path fill="#F66600" d="M60.9,13.3c-0.3,1.7-0.5,3.9,0.4,4.2l-0.1,0.1c-0.5,0.1-0.9,0.1-1.4,0.1c-1.7,0-3.1-0.7-2.6-3.2l0.7-3
		l-0.1,0c-1.2,4.9-2.8,6.2-4.5,6.2c-2.1,0-2.8-1.8-2.8-3.6c0-3.1,2.8-7,6.4-7c1.9,0,3.5,1.7,4.9,0.1L60.9,13.3z M54.1,15.1
		c0,0.8,0.2,1.6,0.7,1.6c1.2,0,2.5-3.1,3-6L58,9.5c0.3-1.6,0.1-2.2-0.8-2.2C55.6,7.3,54.1,11.9,54.1,15.1z"/>
	<path d="M77.2,16L77.2,16c-0.8,1.2-1.7,1.7-2.4,1.7c-0.9,0-1.7-0.5-2.4-1.2c-1.1,0.9-2.1,1.2-3,1.2c-1.7,0-2.5-1-2.5-2.2
		c0-1.9,1.8-3,3.3-3.2c-0.1-0.4-0.1-0.8-0.1-1.2c0-1.8,1.5-2.7,3.1-2.7c1.1,0,1.6,0.4,1.6,1c0,1.1-1.4,1.9-2.2,2.2
		c0.2,0.6,0.6,1.3,1,2.1c0.1-1.6,1.1-3.2,2.4-3.2c1.2,0,1.9,0.8,1.9,1.8c0,1.1-0.8,2.2-2,2.2c-1,0-1.5-0.7-1.5-1.4
		c0-0.4,0.2-1,1-1.2c0.2,0.4,0.4,0.6,0.8,0.6c0.6,0,0.9-0.4,0.9-0.9c0-0.4-0.3-0.9-1-0.9c-1.1,0-2,1.1-2.2,3.1
		c0.8,1.3,1.9,2.4,3.1,2.4C76.8,16.2,77,16.1,77.2,16z M69.2,14.3c0,1.7,1.4,3.1,3.1,2.2c-1-1.1-1.8-2.6-2.1-4.1
		C69.5,12.7,69.2,13.6,69.2,14.3z M73.1,8.5c-0.7,0-0.9,0.7-0.9,1.3c0,0.5,0.1,1.2,0.3,1.8c0.8-0.4,1.3-1.4,1.3-2.2
		C73.8,8.8,73.6,8.5,73.1,8.5z"/>
	<path d="M96.2,11.3c0.5,1.7,1.2,3.1,1.2,4.2c0,1-0.8,1.8-1.9,2.7l0,0c4.6-3.1,7.6-7.4,7.6-10.3c0-0.9-0.5-1.6-1.4-1.6
		c-0.7,0-1.3,0.4-1.6,1c-1.2-0.1-1.7-0.7-1.7-1.8c0-1.5,1.2-2.4,2.4-2.4c1.4,0,2.8,1.1,2.8,3.5c0,4.8-4.5,9.6-8.5,12l-0.1-0.1
		c0.2-0.2,0.2-0.5,0.2-0.8c0-0.9-0.5-2-1.1-3.2c-1.3,1.7-3,3.1-4.8,4.2l-0.1-0.1c0.2-0.2,0.2-0.5,0.2-0.8c0-2.1-4-5.2-4-9
		c0-3,2.5-4.3,5.2-4.5v0c-2.5,0-4.6-1.9-7-1.9c-1.2,0-2.1,0.5-2.1,1.5c0,0.9,0.7,1.2,1.3,1.2c0.5,0,1.1-0.3,1.5-0.8
		c2.3,1,0.8,3.9-1.5,3.9c-1.4,0-2.9-1.1-2.9-2.8c0-1.8,1.5-3.2,3.6-3.2c2.4,0,5.1,2,7,2c0.7,0,0.8-0.3,0.8-0.5
		c0-0.4-0.3-0.6-0.9-0.3c-0.5-0.8,0.2-1.5,0.9-1.5c0.5,0,1.1,0.3,1.1,1c0,0.7-0.6,0.9-1.2,1.3c-1.3,1-1.8,2.5-1.8,4
		c0,3,1.7,6.3,1.7,7.8c0,1-0.6,1.5-1.7,2.4l0,0c1.8-1.2,3.3-2.6,4.4-4c-0.8-1.7-1.6-3.6-1.6-5.5c0-2.4,1.4-3.5,2.6-3.5
		c1,0,2,0.9,2,2.8C97.1,9,96.8,10.2,96.2,11.3z M96.2,11c0.5-1.1,0.7-2.1,0.7-3c0-0.6-0.1-1.4-0.6-1.4c-0.5,0-0.6,1.2-0.6,1.7
		C95.7,9.3,95.9,10.2,96.2,11z"/>
	<path d="M113.3,13.3c-0.3,1.7-0.5,3.9,0.4,4.2l-0.1,0.1c-0.5,0.1-0.9,0.1-1.4,0.1c-1.7,0-3.1-0.7-2.6-3.2l0.7-3l-0.1,0
		c-1.2,4.9-2.8,6.2-4.5,6.2c-2.1,0-2.8-1.8-2.8-3.6c0-3.1,2.8-7,6.4-7c1.9,0,3.5,1.7,4.9,0.1L113.3,13.3z M106.6,15.1
		c0,0.8,0.2,1.6,0.7,1.6c1.2,0,2.5-3.1,3-6l0.2-1.2c0.3-1.6,0.1-2.2-0.8-2.2C108,7.3,106.6,11.9,106.6,15.1z"/>
	<path d="M116.3,8.5c0.1-0.4-0.3-0.7-0.8-0.5l-0.1-0.1c0.7-0.3,2.1-0.8,3-0.8c1.1,0,1.6,0.4,1.3,1.7l-1.1,4.4l0.1,0
		c1.3-5,3.3-6.2,5.1-6.2c2.5,0,2.3,2,2.1,3.4l-0.5,2.8c-0.3,1.7-0.5,3.9,0.4,4.2l-0.1,0.1c-0.5,0.1-1,0.2-1.4,0.2
		c-1.6,0-3-0.7-2.6-3.2l0.8-4.9c0.1-0.9,0.1-1.5-0.3-1.5c-1.1,0-2.5,2.3-3.2,5.2c-0.3,1.4-0.9,3.8-0.2,4.1l-0.1,0.1
		c-0.6,0.1-1.2,0.2-1.6,0.2c-1.6,0-2.3-0.7-1.8-3.1L116.3,8.5z"/>
	<path d="M136.6,17.5c-0.4,2.7-2.5,4.6-6.2,4.6c-1.6,0-3.9-0.4-3.9-2.1c0-1.1,0.9-1.9,2-1.9c0.8,0,1.7,0.6,1.6,1.6
		c-0.7,0.1-1.1,0.6-1.1,1.1c0,0.6,0.4,1.1,1.5,1.1c1.5,0,2-1.1,2.4-3l1.4-7.3l-0.1,0c-1.2,4.9-2.8,6.2-4.5,6.2
		c-2.1,0-2.8-1.8-2.8-3.6c0-3.1,2.8-7,6.4-7c1.9,0,3.5,1.7,4.9,0.1L136.6,17.5z M130.4,15.1c0,0.8,0.2,1.6,0.7,1.6
		c1.2,0,2.5-3.1,3-6l0.2-1.2c0.3-1.6,0.1-2.2-0.8-2.2C131.9,7.3,130.4,11.9,130.4,15.1z"/>
</g>
</svg>
