<?xml version="1.0" encoding="utf-8"?>
<!-- Generator: Adobe Illustrator 18.1.1, SVG Export Plug-In . SVG Version: 6.00 Build 0)  -->
<svg version="1.1" id="Layer_1" xmlns="http://www.w3.org/2000/svg" xmlns:xlink="http://www.w3.org/1999/xlink" x="0px" y="0px"
	 viewBox="0 28.8 35 6.2" enable-background="new 0 28.8 35 6.2" xml:space="preserve">
<g>
	<path fill="#F66600" d="M2.8,30c0.6,0,1.1,0.2,1.1,0.8c0,0.4-0.3,0.6-0.6,0.6c-0.2,0-0.5-0.2-0.4-0.5c0.2-0.1,0.3-0.2,0.3-0.4
		C3.2,30.2,3,30.1,2.8,30c-0.4,0.1-0.7,0.2-0.7,0.6c0,0.8,1.8,0.7,1.8,1.9c0,0.9-0.9,1.7-2,1.7c-1,0-1.4-0.5-1.4-1.1
		c0-0.5,0.4-1,1-1c0.5,0,1,0.3,1,0.8c0,0.3-0.2,0.6-0.7,0.6c-0.3,0-0.5-0.2-0.4-0.5c0.2,0,0.4-0.2,0.4-0.5s-0.2-0.3-0.4-0.3
		c-0.4,0-0.7,0.4-0.7,0.9c0,0.6,0.4,1.1,1.3,1.1c0.8,0,1.3-0.5,1.3-1c0-1-2-1-2-2.1C1.3,30.4,2.1,30,2.8,30z"/>
	<path fill="#F66600" d="M6,31.3C6,31.1,5.9,31,5.8,31c-0.4,0-0.7,0.6-0.7,1.1c0,0.5,0.2,1,0.7,1C6,33,6.3,33,6.5,32.7l0,0
		c-0.3,0.5-0.8,0.9-1.4,0.9c-0.6,0-1-0.4-1-1c0-0.9,0.7-1.6,1.7-1.6c0.4,0,0.9,0.1,0.9,0.5c0,0.4-0.4,0.9-1.6,0.5v0
		C5.8,32,6,31.6,6,31.3z"/>
	<path fill="#F66600" d="M7.3,30c0-0.1-0.1-0.2-0.2-0.1l0,0c0.2-0.1,0.5-0.2,0.8-0.2c0.3,0,0.4,0.1,0.3,0.4l-0.4,2.4
		c-0.1,0.3-0.2,1,0,1l0,0c-0.3,0.1-1,0-0.9-0.8L7.3,30z"/>
	<path fill="#F66600" d="M9.2,32.5c-0.1,0.3-0.2,0.9-0.1,1l0,0c-0.1,0-0.3,0-0.4,0c-0.4,0-0.6-0.2-0.4-0.8l0.3-1.5
		c0-0.1-0.1-0.2-0.2-0.1l0,0C8.5,31,8.8,30.9,9,30.9c0.3,0,0.4,0.1,0.3,0.4L9.2,32.5L9.2,32.5c0.2-1.3,0.7-1.6,1.2-1.6
		c0.6,0,0.6,0.5,0.5,0.9l-0.2,0.7h0c0.3-1.2,0.8-1.5,1.2-1.5c0.6,0,0.6,0.5,0.5,0.8l-0.1,0.7c-0.1,0.4-0.1,1,0.1,1.1l0,0
		c-0.1,0-0.2,0.1-0.4,0.1c-0.4,0-0.8-0.2-0.6-0.8l0.2-1.2c0-0.2,0-0.4-0.1-0.4c-0.3,0-0.6,0.6-0.8,1.3c-0.1,0.3-0.2,1-0.1,1l0,0
		c-0.1,0-0.3,0.1-0.4,0.1c-0.4,0-0.6-0.2-0.4-0.8l0.2-1.2c0-0.2,0-0.4-0.1-0.4C9.6,31.2,9.4,31.8,9.2,32.5z"/>
	<path fill="#F66600" d="M15.2,32.5c-0.1,0.4-0.1,1,0.1,1l0,0c-0.1,0-0.2,0-0.4,0c-0.4,0-0.8-0.2-0.6-0.8l0.2-0.8h0
		c-0.3,1.2-0.7,1.5-1.1,1.5c-0.5,0-0.7-0.4-0.7-0.9c0-0.8,0.7-1.8,1.6-1.8c0.5,0,0.9,0.4,1.2,0L15.2,32.5z M13.5,32.9
		c0,0.2,0.1,0.4,0.2,0.4c0.3,0,0.6-0.8,0.8-1.5l0.1-0.3c0.1-0.4,0-0.5-0.2-0.5C13.9,31,13.5,32.1,13.5,32.9z"/>
	<path d="M19.3,33.1L19.3,33.1c-0.2,0.3-0.4,0.4-0.6,0.4c-0.2,0-0.4-0.1-0.6-0.3c-0.3,0.2-0.5,0.3-0.8,0.3c-0.4,0-0.6-0.2-0.6-0.5
		c0-0.5,0.5-0.8,0.8-0.8c0-0.1,0-0.2,0-0.3c0-0.5,0.4-0.7,0.8-0.7c0.3,0,0.4,0.1,0.4,0.2c0,0.3-0.4,0.5-0.5,0.6
		c0,0.1,0.1,0.3,0.2,0.5c0-0.4,0.3-0.8,0.6-0.8c0.3,0,0.5,0.2,0.5,0.5c0,0.3-0.2,0.5-0.5,0.5c-0.2,0-0.4-0.2-0.4-0.3
		c0-0.1,0-0.2,0.2-0.3c0,0.1,0.1,0.1,0.2,0.1c0.1,0,0.2-0.1,0.2-0.2c0-0.1-0.1-0.2-0.2-0.2c-0.3,0-0.5,0.3-0.5,0.8
		C18.7,32.9,19,33.2,19.3,33.1C19.2,33.2,19.3,33.2,19.3,33.1z M17.3,32.7c0,0.4,0.4,0.8,0.8,0.5c-0.2-0.3-0.5-0.6-0.5-1
		C17.4,32.3,17.3,32.5,17.3,32.7z M18.3,31.3c-0.2,0-0.2,0.2-0.2,0.3c0,0.1,0,0.3,0.1,0.5c0.2-0.1,0.3-0.4,0.3-0.6
		C18.5,31.3,18.4,31.3,18.3,31.3z"/>
	<path d="M24.1,32c0.1,0.4,0.3,0.8,0.3,1c0,0.2-0.2,0.5-0.5,0.7l0,0c1.1-0.8,1.9-1.8,1.9-2.6c0-0.2-0.1-0.4-0.4-0.4
		c-0.2,0-0.3,0.1-0.4,0.2c-0.3,0-0.4-0.2-0.4-0.5c0-0.4,0.3-0.6,0.6-0.6c0.4,0,0.7,0.3,0.7,0.9c0,1.2-1.1,2.4-2.1,3l0,0
		c0,0,0-0.1,0-0.2c0-0.2-0.1-0.5-0.3-0.8c-0.3,0.4-0.8,0.8-1.2,1l0,0c0,0,0-0.1,0-0.2c0-0.5-1-1.3-1-2.2c0-0.8,0.6-1.1,1.3-1.1l0,0
		c-0.6,0-1.1-0.5-1.8-0.5c-0.3,0-0.5,0.1-0.5,0.4c0,0.2,0.2,0.3,0.3,0.3c0.1,0,0.3-0.1,0.4-0.2c0.6,0.2,0.2,1-0.4,1
		c-0.4,0-0.7-0.3-0.7-0.7c0-0.4,0.4-0.8,0.9-0.8c0.6,0,1.3,0.5,1.8,0.5c0.2,0,0.2-0.1,0.2-0.1c0-0.1-0.1-0.1-0.2-0.1
		c-0.1-0.2,0-0.4,0.2-0.4c0.1,0,0.3,0.1,0.3,0.2c0,0.2-0.1,0.2-0.3,0.3c-0.3,0.2-0.5,0.6-0.5,1c0,0.8,0.4,1.6,0.4,1.9
		c0,0.2-0.1,0.4-0.4,0.6l0,0c0.5-0.3,0.8-0.7,1.1-1c-0.2-0.4-0.4-0.9-0.4-1.4c0-0.6,0.4-0.9,0.6-0.9c0.2,0,0.5,0.2,0.5,0.7
		C24.3,31.4,24.2,31.7,24.1,32z M24.1,31.9c0.1-0.3,0.2-0.5,0.2-0.8c0-0.1,0-0.3-0.1-0.3s-0.1,0.3-0.1,0.4
		C23.9,31.5,24,31.7,24.1,31.9z"/>
	<path d="M28.3,32.5c-0.1,0.4-0.1,1,0.1,1l0,0c-0.1,0-0.2,0-0.4,0c-0.4,0-0.8-0.2-0.6-0.8l0.2-0.8h0c-0.3,1.2-0.7,1.5-1.1,1.5
		c-0.5,0-0.7-0.4-0.7-0.9c0-0.8,0.7-1.8,1.6-1.8c0.5,0,0.9,0.4,1.2,0L28.3,32.5z M26.7,32.9c0,0.2,0,0.4,0.2,0.4
		c0.3,0,0.6-0.8,0.8-1.5l0-0.3c0.1-0.4,0-0.5-0.2-0.5C27,31,26.7,32.1,26.7,32.9z"/>
	<path d="M29.1,31.3c0-0.1-0.1-0.2-0.2-0.1l0,0c0.2-0.1,0.5-0.2,0.8-0.2c0.3,0,0.4,0.1,0.3,0.4l-0.3,1.1h0c0.3-1.2,0.8-1.5,1.3-1.5
		c0.6,0,0.6,0.5,0.5,0.9l-0.1,0.7c-0.1,0.4-0.1,1,0.1,1.1l0,0c-0.1,0-0.2,0.1-0.4,0.1c-0.4,0-0.8-0.2-0.6-0.8l0.2-1.2
		c0-0.2,0-0.4-0.1-0.4c-0.3,0-0.6,0.6-0.8,1.3c-0.1,0.3-0.2,1,0,1l0,0c-0.1,0-0.3,0.1-0.4,0.1c-0.4,0-0.6-0.2-0.5-0.8L29.1,31.3z"/>
	<path d="M34.2,33.5c-0.1,0.7-0.6,1.2-1.5,1.2c-0.4,0-1-0.1-1-0.5c0-0.3,0.2-0.5,0.5-0.5c0.2,0,0.4,0.1,0.4,0.4
		c-0.2,0-0.3,0.2-0.3,0.3c0,0.2,0.1,0.3,0.4,0.3c0.4,0,0.5-0.3,0.6-0.8l0.3-1.8h0c-0.3,1.2-0.7,1.5-1.1,1.5c-0.5,0-0.7-0.5-0.7-0.9
		c0-0.8,0.7-1.7,1.6-1.7c0.5,0,0.9,0.4,1.2,0L34.2,33.5z M32.6,32.9c0,0.2,0,0.4,0.2,0.4c0.3,0,0.6-0.8,0.8-1.5l0-0.3
		c0.1-0.4,0-0.5-0.2-0.5C33,31,32.6,32.1,32.6,32.9z"/>
</g>
</svg>
