<?xml version="1.0" encoding="utf-8"?>
<!-- Generator: Adobe Illustrator 18.1.1, SVG Export Plug-In . SVG Version: 6.00 Build 0)  -->
<svg version="1.1" id="Layer_1" xmlns="http://www.w3.org/2000/svg" xmlns:xlink="http://www.w3.org/1999/xlink" x="0px" y="0px"
	 viewBox="-25 7.5 85 20" enable-background="new -25 7.5 85 20" xml:space="preserve">
<g>
	<path fill="#F66600" d="M-18,15c-0.2,0.7,0.4,1.2,1,1.2c0.7,0,1.5-0.6,1.5-1.6c0-1.3-1.3-1.9-2.8-1.9c-1.9,0-3.9,1-3.9,2.8
		c0,2.6,4.9,2.8,4.9,5.1c0,1.2-1.2,2.4-3.2,2.4c-2.2,0-3.2-1.3-3.2-2.7c0-1.2,0.8-2.3,1.8-2.3c0.5,0,1,0.2,1,0.9
		c0,0.6-0.5,1.1-1.1,1.2c-0.2,0.7,0.4,1.3,1.1,1.3c1,0,1.6-0.7,1.6-1.5c0-1.2-1.3-1.9-2.5-1.9c-1.4,0-2.5,1.1-2.5,2.4
		c0,1.4,1.2,2.8,3.6,2.8c2.8,0,5.1-1.9,5.1-4.1c0-3.1-4.6-3-4.6-4.9c0-0.8,0.9-1.4,1.6-1.4c0.6,0,1.2,0.4,1.2,1.2
		C-17.3,14.5-17.5,14.9-18,15z"/>
	<path fill="#F66600" d="M-12.6,17.7L-12.6,17.7c3,0.8,4.1-0.3,4.1-1.3c0-1.1-1.4-1.4-2.4-1.4c-2.3,0-4.1,1.9-4.1,4
		c0,1.6,1.1,2.6,2.5,2.6c1.4,0,2.7-0.9,3.5-2.2l-0.1,0c-0.6,0.7-1.3,0.9-1.9,0.9c-1.4,0-1.8-1.1-1.8-2.4c0.1-1.2,0.7-2.7,1.7-2.7
		c0.4,0,0.7,0.3,0.7,0.8C-10.3,16.8-10.9,17.8-12.6,17.7z"/>
	<path fill="#F66600" d="M-5.7,11.9c-0.6,0-1.4,0.3-1.9,0.5l0,0c0.3-0.1,0.5,0.1,0.5,0.3l-1.1,7c-0.3,2,1.4,2,2.3,1.9l0,0
		c-0.4-0.2-0.1-1.8,0-2.6l1-6C-4.8,12.2-5,11.9-5.7,11.9z"/>
	<path fill="#F66600" d="M4.4,15.1c-1.1,0-2.2,0.7-3,3.9l0,0l0.4-1.8c0.2-0.8,0.3-2.1-1.2-2.1c-1.1,0-2.2,0.7-3,3.9l0,0l0.7-2.8
		c0.2-0.8-0.1-1.1-0.8-1.1c-0.6,0-1.4,0.3-1.9,0.5l0,0c0.3-0.1,0.5,0.1,0.5,0.3l-0.7,3.9c-0.3,1.5,0.2,1.9,1.1,1.9
		c0.3,0,0.6,0,1-0.1l0,0C-3,21.3-2.6,19.8-2.4,19c0.5-1.8,1.2-3.2,1.9-3.2c0.3,0,0.3,0.4,0.2,0.9l-0.5,3c-0.3,1.6,0.1,2,1.1,2
		c0.3,0,0.6,0,1-0.1l0,0c-0.4-0.2-0.1-1.7,0.1-2.6c0.5-1.8,1.2-3.2,1.9-3.2c0.3,0,0.3,0.4,0.2,0.9l-0.5,3c-0.2,1.5,0.6,2,1.6,2
		c0.3,0,0.6,0,0.9-0.1l0,0c-0.5-0.2-0.4-1.6-0.2-2.6l0.3-1.7C5.8,16.3,5.9,15.1,4.4,15.1z"/>
	<path fill="#F66600" d="M12.7,18.9l0.7-3.8c-0.9,1-1.9-0.1-3.1-0.1c-2.2,0-4,2.4-4,4.3c0,1.1,0.5,2.3,1.7,2.3c1.1,0,2-0.8,2.8-3.9
		l0,0l-0.5,1.9c-0.4,1.5,0.6,2,1.6,2c0.3,0,0.6,0,0.9-0.1l0,0C12.4,21.3,12.5,20,12.7,18.9z M10.9,16.5l-0.1,0.7
		C10.5,19.1,9.7,21,8.9,21c-0.3,0-0.4-0.5-0.4-1c0-2,0.9-4.9,1.9-4.9C11,15.2,11.1,15.6,10.9,16.5z"/>
</g>
<path d="M22.5,20.6L22.5,20.6c-0.5,0.7-1,1-1.4,1c-0.5,0-1-0.3-1.4-0.7c-0.7,0.5-1.3,0.7-1.8,0.7c-1,0-1.5-0.6-1.5-1.3
	c0-1.1,1-1.8,2-1.9c-0.1-0.2-0.1-0.5-0.1-0.7c0-1,0.9-1.6,1.8-1.6c0.6,0,0.9,0.2,0.9,0.6c0,0.6-0.8,1.1-1.3,1.3
	c0.1,0.3,0.3,0.8,0.6,1.2c0.1-0.9,0.6-1.9,1.4-1.9c0.7,0,1.1,0.5,1.1,1.1c0,0.7-0.5,1.3-1.2,1.3c-0.6,0-0.9-0.4-0.9-0.8
	c0-0.2,0.1-0.6,0.6-0.7c0.1,0.2,0.2,0.3,0.5,0.3c0.3,0,0.5-0.2,0.5-0.5c0-0.3-0.2-0.5-0.6-0.5c-0.6,0-1.2,0.7-1.3,1.8
	c0.5,0.7,1.1,1.4,1.8,1.4C22.3,20.7,22.4,20.7,22.5,20.6z M17.8,19.6c0,1,0.8,1.8,1.8,1.3c-0.6-0.6-1.1-1.5-1.3-2.4
	C18,18.7,17.8,19.2,17.8,19.6z M20.1,16.2c-0.4,0-0.5,0.4-0.5,0.7c0,0.3,0.1,0.7,0.2,1.1c0.5-0.3,0.8-0.8,0.8-1.3
	C20.5,16.4,20.4,16.2,20.1,16.2z"/>
<g>
	<path d="M35.9,12.5c-0.8,0-1.5,0.6-1.5,1.5c0,0.6,0.3,1.1,1.1,1.1c0.2-0.4,0.6-0.6,1-0.6c0.6,0,0.9,0.4,0.9,1
		c0,1.8-1.9,4.5-4.8,6.4l0,0c0.7-0.6,1.2-1.1,1.2-1.7c0-0.7-0.4-1.6-0.7-2.6c0.3-0.7,0.5-1.4,0.5-2.1c0-1.2-0.6-1.7-1.3-1.7
		c-0.7,0-1.6,0.7-1.6,2.2c0,1.2,0.5,2.4,1,3.5C31,20.4,30.1,21.2,29,22l0,0c0.7-0.6,1.1-0.9,1.1-1.5c0-1-1-3-1-4.9
		c0-0.9,0.3-1.8,1.1-2.5c0.4-0.3,0.7-0.4,0.7-0.8c0-0.4-0.4-0.6-0.7-0.6c-0.4,0-0.8,0.4-0.6,1c0.3-0.2,0.6,0,0.6,0.2
		c0,0.1-0.1,0.3-0.5,0.3c-1.2,0-2.9-1.2-4.4-1.2c-1.3,0-2.3,0.9-2.3,2c0,1.1,0.9,1.8,1.8,1.8c1.5,0,2.4-1.8,0.9-2.5
		c-0.3,0.3-0.6,0.5-0.9,0.5c-0.4,0-0.8-0.2-0.8-0.8c0-0.7,0.5-1,1.3-1c1.5,0,2.9,1.2,4.4,1.2v0c-1.7,0.1-3.3,0.9-3.3,2.8
		c0,2.4,2.5,4.3,2.5,5.6c0,0.2,0,0.4-0.1,0.5l0,0.1c1.1-0.6,2.2-1.6,3-2.6c0.4,0.8,0.7,1.5,0.7,2c0,0.2-0.1,0.4-0.1,0.5l0,0.1
		c2.5-1.5,5.3-4.5,5.3-7.5C37.7,13.2,36.8,12.5,35.9,12.5z M33.1,14.7c0.3,0,0.3,0.5,0.3,0.9c0,0.6-0.2,1.2-0.5,1.9
		c-0.2-0.5-0.3-1.1-0.3-1.6C32.7,15.4,32.8,14.7,33.1,14.7z"/>
	<path d="M44.3,15.1c-0.9,1-1.9-0.1-3.1-0.1c-2.2,0-4,2.4-4,4.3c0,1.1,0.5,2.3,1.7,2.3c1.1,0,2.1-0.8,2.8-3.9l0.1,0l-0.5,1.9
		c-0.4,1.5,0.6,2,1.6,2c0.3,0,0.6,0,0.9-0.1l0,0c-0.5-0.2-0.4-1.6-0.2-2.6L44.3,15.1z M41.9,16.5l-0.1,0.7c-0.3,1.8-1.1,3.7-1.9,3.7
		c-0.3,0-0.4-0.5-0.4-1c0-2,0.9-4.9,1.9-4.9C42,15.2,42.1,15.6,41.9,16.5z"/>
	<path d="M50.2,15.1c-1.1,0-2.3,0.7-3.2,3.9l-0.1,0l0.7-2.8c0.2-0.8-0.1-1.1-0.8-1.1c-0.6,0-1.4,0.3-1.9,0.5l0,0
		c0.3-0.1,0.5,0.1,0.5,0.3l-0.7,3.9c-0.3,1.5,0.2,1.9,1.1,1.9c0.3,0,0.6,0,1-0.1l0,0c-0.4-0.2-0.1-1.7,0.1-2.6
		c0.5-1.8,1.3-3.2,2-3.2c0.3,0,0.3,0.4,0.2,0.9l-0.5,3c-0.2,1.5,0.6,2,1.6,2c0.3,0,0.6,0,0.9-0.1l0,0c-0.5-0.2-0.4-1.6-0.2-2.6
		l0.3-1.7C51.6,16.3,51.7,15.1,50.2,15.1z"/>
	<path d="M56.1,15.1c-2.2,0-4,2.4-4,4.3c0,1.1,0.5,2.3,1.7,2.3c1.1,0,2.1-0.8,2.8-3.9l0.1,0l-0.9,4.6c-0.2,1.1-0.5,1.9-1.5,1.9
		c-0.7,0-0.9-0.4-0.9-0.7c0-0.3,0.2-0.6,0.7-0.7c0.1-0.7-0.5-1-1-1c-0.7,0-1.3,0.5-1.3,1.2c0,1.1,1.4,1.3,2.4,1.3
		c2.3,0,3.6-1.2,3.9-2.8l1-6.4C58.3,16.1,57.3,15.1,56.1,15.1z M56.8,16.5l-0.1,0.7c-0.3,1.8-1.1,3.7-1.9,3.7c-0.3,0-0.4-0.5-0.4-1
		c0-2,0.9-4.9,1.9-4.9C56.9,15.2,57,15.6,56.8,16.5z"/>
</g>
</svg>
