<?xml version="1.0" encoding="utf-8"?>
<!-- Generator: Adobe Illustrator 18.1.1, SVG Export Plug-In . SVG Version: 6.00 Build 0)  -->
<svg version="1.1" id="Layer_1" xmlns="http://www.w3.org/2000/svg" xmlns:xlink="http://www.w3.org/1999/xlink" x="0px" y="0px"
	 viewBox="0 0 1200 800" enable-background="new 0 0 1200 800" xml:space="preserve">
<polygon opacity="0.2" fill="#FFFFFF" points="1045.6,93.1 712,449 100.6,595.6 620.3,397.7 "/>
<polygon opacity="0.2" fill="#FFFFFF" points="1105.6,311.6 1200,800 568.6,575.6 100.6,595.6 686.2,475.6 712,449 995,395.7 
	1045.6,93.1 "/>
<polygon opacity="0.25" fill="#FFFFFF" points="1045.6,93.1 995,395.7 712,449 "/>
<polygon opacity="0.3" fill="#FFFFFF" points="1045.6,93.1 620.3,397.7 100.6,595.6 "/>
<polygon opacity="0.15" fill="#FFFFFF" points="1045.6,93.1 100.6,595.6 167,295.7 "/>
<polygon opacity="0.3" fill="#FFFFFF" points="1045.6,93.1 167,295.7 100.6,595.6 40.6,307.1 -53.8,-181.3 577.6,43.1 "/>
<polygon opacity="0.3" fill="#FFFFFF" points="100.6,595.6 712,449 686.2,475.6 "/>
</svg>
